<mxfile host="app.diagrams.net" modified="2024-08-01T19:03:39.026Z" agent="Mozilla/5.0 (Macintosh; Intel Mac OS X 10_15_7) AppleWebKit/537.36 (KHTML, like Gecko) Chrome/127.0.0.0 Safari/537.36" version="24.7.3" etag="JJV6IU6rCel25GEVV13J" type="github">
  <diagram name="Page-1" id="CunedzLFDbImg43r3Ajx">
    <mxGraphModel>
      <root>
        <mxCell id="0" />
        <mxCell id="1" parent="0" />
      </root>
    </mxGraphModel>
  </diagram>
</mxfile>
